<?xml version="1.0" standalone="no"?>
<!DOCTYPE svg PUBLIC "-//W3C//DTD SVG 20010904//EN"
 "http://www.w3.org/TR/2001/REC-SVG-20010904/DTD/svg10.dtd">
<svg version="1.0" xmlns="http://www.w3.org/2000/svg"
 width="64.000000pt" height="64.000000pt" viewBox="0 0 64.000000 64.000000"
 preserveAspectRatio="xMidYMid meet">
<metadata>
Created by potrace 1.15, written by Peter Selinger 2001-2017
</metadata>
<g transform="translate(0.000000,64.000000) scale(0.100000,-0.100000)"
fill="#000000" stroke="none">
<path d="M295 608 c-2 -7 -5 -43 -8 -80 -3 -36 -13 -83 -23 -104 -21 -42 -54
-67 -61 -46 -3 8 -32 12 -94 12 l-89 0 0 -175 0 -175 89 0 c58 0 91 4 93 11 3
9 9 9 25 0 13 -7 75 -11 160 -11 150 0 183 10 183 53 0 12 9 28 20 35 14 9 20
23 20 51 0 22 5 43 10 46 12 8 13 82 1 89 -5 3 -9 21 -8 40 2 56 -14 66 -108
66 l-83 0 -1 60 c0 64 -25 122 -57 134 -27 10 -64 7 -69 -6z m75 -50 c14 -24
20 -51 20 -95 l0 -63 76 0 c100 0 117 -10 109 -59 -5 -30 -3 -40 9 -44 9 -4
16 -16 16 -27 0 -11 -7 -23 -16 -27 -12 -4 -14 -14 -9 -44 5 -31 3 -39 -14
-49 -14 -7 -21 -21 -21 -40 0 -39 -23 -45 -167 -45 -98 1 -116 3 -140 21 -27
21 -28 23 -31 135 l-3 115 33 9 c48 14 78 78 78 165 0 37 3 70 7 73 14 15 34
5 53 -25z m-195 -343 l0 -150 -65 0 -65 0 -3 140 c-1 76 0 145 3 152 3 10 22
13 67 11 l63 -3 0 -150z"/>
</g>
</svg>
